<svg width="51" height="50" viewBox="0 0 51 50" fill="none" xmlns="http://www.w3.org/2000/svg">
<g clip-path="url(#clip0_532_173)">
<path d="M43.2652 39.4812C42.6068 38.9948 41.818 38.4499 40.9206 37.8617C40.5816 37.6397 40.1267 37.7341 39.9045 38.0732C39.6823 38.4121 39.7769 38.867 40.1159 39.0893C40.9904 39.6626 41.7566 40.1917 42.3931 40.6618C45.4677 42.933 46.5831 44.9143 46.7089 48.5324H40.206C40.1656 47.0022 40.0201 45.4492 40.0129 45.3738C39.9746 44.9702 39.6166 44.6733 39.2131 44.7124C38.8096 44.7506 38.5135 45.1086 38.5516 45.5121C38.5534 45.5299 38.6964 47.0565 38.7376 48.5324H15.7613C15.8025 47.0564 15.9455 45.5299 15.9473 45.512C15.9854 45.1085 15.6892 44.7505 15.2858 44.7123C14.882 44.6737 14.5243 44.9702 14.4861 45.3737C14.479 45.4492 14.3334 47.0021 14.2931 48.5323H9.7243C10.046 48.0138 10.2869 47.365 10.44 46.5951L10.4404 46.5958C11.9336 46.34 13.0738 45.037 13.0738 43.472C13.0738 42.4223 12.5606 41.4905 11.7724 40.9133C11.881 40.8296 11.9923 40.7457 12.1059 40.6617C15.153 38.4109 20.2135 35.5115 22.3042 34.3384C22.8347 36.5783 24.8498 38.2504 27.2496 38.2504C29.6494 38.2504 31.6647 36.5782 32.1951 34.3383C33.3725 34.9986 35.4902 36.2052 37.6505 37.5301C38.0189 37.756 38.5151 37.6064 38.6986 37.2161C38.8557 36.8823 38.732 36.4716 38.4178 36.2789C35.8143 34.6823 33.2722 33.2558 32.3328 32.7344V31.7024C34.2445 30.523 35.7187 28.6997 36.4503 26.5371C36.4784 26.5378 36.5066 26.5393 36.5348 26.5393C38.5896 26.5393 40.2614 24.8675 40.2614 22.8126C40.2614 22.0105 40.0057 21.2673 39.5729 20.6585C39.9106 19.3214 40.1141 17.9771 40.1746 16.6568C40.1932 16.2519 39.88 15.9086 39.4752 15.8901C39.0708 15.8723 38.7271 16.1847 38.7085 16.5895C38.6638 17.5642 38.5348 18.5545 38.3255 19.5454C37.7937 19.2528 37.1834 19.0859 36.5348 19.0859C36.4843 19.0859 36.4335 19.0877 36.3828 19.0898C35.6011 18.6624 32.2296 16.628 31.7993 13.1578C33.0099 12.9677 34.2223 12.6757 35.306 12.2346C36.4073 11.7864 37.2239 11.2458 37.8266 10.6642C38.1967 11.6597 38.4557 12.7048 38.5966 13.7855C38.6489 14.1871 39.0321 14.4766 39.4327 14.4163C39.8228 14.3576 40.103 13.9876 40.0519 13.5958C39.8558 12.0911 39.453 10.6464 38.8545 9.29514C39.2694 8.48576 39.401 7.67151 39.4013 6.96799C39.4017 5.65471 38.8472 4.51223 37.7974 3.66418C36.8983 2.93791 35.6479 2.43508 34.1814 2.21028C32.8856 2.01154 31.5106 2.04465 30.3097 2.30334C30.0537 2.35852 29.8101 2.38518 29.5753 2.38928C29.8355 2.01047 30.1906 1.60529 30.6201 1.39055C30.9826 1.2093 31.1296 0.768478 30.9483 0.405978C30.7671 0.0434785 30.3262 -0.103592 29.9638 0.0778535C29.0144 0.552463 28.3716 1.47932 28.0252 2.10129C27.6308 1.95813 27.2387 1.77561 26.8265 1.58283C25.3494 0.892307 23.6752 0.109689 21.1016 0.771506C17.4741 1.70432 14.8265 4.8636 15.1999 7.81408C15.2552 8.251 15.3849 8.75559 15.6511 9.28078C13.7754 13.4981 14.1821 17.7202 14.9254 20.6599C14.4931 21.2684 14.2379 22.0111 14.2379 22.8126C14.2379 24.8675 15.9097 26.5393 17.9645 26.5393C17.9927 26.5393 18.0209 26.5377 18.049 26.5371C18.7806 28.6997 20.2549 30.523 22.1665 31.7025V32.734C20.6055 33.5988 14.7318 36.8975 11.2339 39.4814C10.8505 39.7646 10.503 40.0392 10.1775 40.3147C10.0807 40.3064 9.98358 40.3014 9.88651 40.3022C9.84501 40.3026 9.78661 40.3156 9.7578 40.292C9.72733 40.267 9.70243 40.202 9.68085 40.1688L10.4653 28.7898C10.4729 28.6785 10.4541 28.5629 10.4117 28.4598L9.1952 25.5063C9.72997 24.9549 10.0378 24.2092 10.0378 23.4163C10.0378 23.0013 9.91141 22.2173 8.81864 20.2094C8.24774 19.1604 7.68573 18.2812 7.6621 18.2443C7.3785 17.8014 6.70975 17.8014 6.42616 18.2443C6.40253 18.2812 5.84052 19.1604 5.26962 20.2094C4.17684 22.2174 4.05048 23.0013 4.05048 23.4163C4.05048 24.2092 4.35829 24.9549 4.89305 25.5063L3.67655 28.4598C3.63417 28.5628 3.61532 28.6785 3.62294 28.7898L3.85975 32.2245C3.88759 32.6288 4.23798 32.9333 4.64237 32.9062C5.04667 32.8782 5.35194 32.528 5.32401 32.1236L5.1413 29.4731H8.94706L8.29169 38.9789C7.94794 38.8408 7.56971 38.7698 7.15878 38.7698C6.68485 38.7698 6.22889 38.8696 5.80155 39.0516L5.52577 35.0519C5.49784 34.6475 5.14667 34.3425 4.74315 34.3702C4.33886 34.3982 4.03358 34.7485 4.06151 35.1529L4.39911 40.0495C3.43016 41.0802 2.81122 42.641 2.81122 44.3852C2.81122 47.4179 4.6827 49.8952 7.01229 49.9955C7.0205 49.9986 7.03085 50.0003 7.04413 50.0003H47.4551C47.8603 50.0003 48.189 49.6717 48.189 49.2664C48.1889 44.6697 46.9465 42.2005 43.2652 39.4812ZM36.959 23.4328V20.5941C38.0023 20.7933 38.7936 21.712 38.7936 22.8125C38.7936 23.9603 37.9329 24.9103 36.8232 25.0525C36.912 24.5255 36.959 23.9846 36.959 23.4328ZM30.8649 33.1673C30.8649 35.1609 29.2431 36.7826 27.2495 36.7826C25.2559 36.7826 23.6342 35.1608 23.6342 33.1673V32.4423C24.7523 32.8927 25.9721 33.1422 27.2495 33.1422C28.5269 33.1422 29.7468 32.8926 30.8649 32.4423V33.1673ZM21.467 2.19289C22.02 2.05071 22.518 1.99026 22.9773 1.99026C24.2321 1.99026 25.1981 2.44182 26.2047 2.91233C27.4835 3.51018 28.8057 4.12834 30.6185 3.73811C33.1764 3.18723 35.7019 3.85822 36.8749 4.80578C37.5875 5.38147 37.9337 6.0885 37.9334 6.96731C37.9327 8.726 36.8923 10.0042 34.7527 10.875C32.9173 11.622 30.3227 12.0168 27.2495 12.0168C20.9636 12.0168 17.0033 10.3768 16.6558 7.62971C16.3768 5.42502 18.5801 2.93518 21.467 2.19289ZM15.7054 22.8125C15.7054 21.712 16.4967 20.7933 17.54 20.5941V23.4328C17.54 23.9846 17.587 24.5255 17.6759 25.0525C16.5661 24.9102 15.7054 23.9603 15.7054 22.8125ZM17.9643 19.0858C17.3153 19.0858 16.7048 19.2529 16.1727 19.5458C15.6535 17.0937 15.4658 13.8857 16.6768 10.6477C17.1224 11.0768 17.6935 11.4927 18.4256 11.8698C19.5804 12.4648 21.0102 12.8962 22.6992 13.1628C22.2662 16.631 18.8953 18.6639 18.1164 19.0896C18.0656 19.0876 18.0148 19.0858 17.9643 19.0858ZM19.0077 23.4328V20.2755C20.2252 19.5839 23.6776 17.2939 24.1582 13.3451C25.1194 13.437 26.1491 13.4846 27.2494 13.4846C28.16 13.4846 29.2264 13.4496 30.3404 13.3415C30.8201 17.2847 34.2749 19.5814 35.4912 20.2746V23.4327C35.4912 27.9773 31.7939 31.6744 27.2494 31.6744C22.7049 31.6744 19.0077 27.9774 19.0077 23.4328ZM10.4226 41.8519C11.1081 42.072 11.606 42.7144 11.606 43.4721C11.606 44.1536 11.2034 44.743 10.6236 45.0147L10.6234 45.0149C10.6326 44.8105 10.6375 44.6006 10.6375 44.385C10.6375 43.4224 10.5444 42.5716 10.3663 41.8407L10.4226 41.8519ZM7.04403 20.0469C7.85721 21.4383 8.57001 22.9062 8.57001 23.4161C8.57001 23.8602 8.38387 24.2741 8.06444 24.5592H6.02362C5.70419 24.2741 5.51805 23.8602 5.51805 23.4161C5.51805 22.9062 6.23085 21.4383 7.04403 20.0469ZM5.45087 28.0052L6.26571 26.027H7.82235L8.63719 28.0052H5.45087ZM7.15868 48.5323C5.57069 48.5323 4.2788 46.6718 4.2788 44.3849C4.2788 42.098 5.57069 40.2374 7.15868 40.2374C7.90975 40.2374 9.16971 40.7763 9.16971 44.3849C9.16981 47.9935 7.90975 48.5323 7.15868 48.5323Z" fill="#073141"/>
<path d="M22.9003 19.0858C22.1563 19.0858 21.5953 19.8339 21.5953 20.8258C21.5953 21.8177 22.1563 22.5657 22.9003 22.5657C23.6441 22.5657 24.2052 21.8177 24.2052 20.8258C24.2052 19.8339 23.6441 19.0858 22.9003 19.0858Z" fill="#073141"/>
<path d="M31.5987 22.5657C32.3427 22.5657 32.9036 21.8177 32.9036 20.8258C32.9036 19.8339 32.3426 19.0858 31.5987 19.0858C30.8549 19.0858 30.2938 19.8339 30.2938 20.8258C30.2938 21.8177 30.8548 22.5657 31.5987 22.5657Z" fill="#073141"/>
<path d="M30.8193 26.1815C30.9736 25.8067 30.7949 25.3779 30.4202 25.2235C30.0452 25.069 29.6165 25.2479 29.4622 25.6227C29.4582 25.6324 29.0213 26.588 27.4685 26.588C25.9157 26.588 25.4788 25.6324 25.4749 25.6227C25.3206 25.2479 24.8919 25.0691 24.5169 25.2235C24.1421 25.3778 23.9634 25.8067 24.1177 26.1815C24.1491 26.2581 24.9186 28.0556 27.4684 28.0556C30.0183 28.0556 30.7879 26.2581 30.8193 26.1815Z" fill="#073141"/>
</g>
<defs>
<clipPath id="clip0_532_173">
<rect width="50" height="50" fill="white" transform="translate(0.5)"/>
</clipPath>
</defs>
</svg>
