<svg width="51" height="50" viewBox="0 0 51 50" fill="none" xmlns="http://www.w3.org/2000/svg">
<g clip-path="url(#clip0_532_186)">
<path d="M33.4526 27.5668C33.4526 25.9544 32.1408 24.6428 30.5285 24.6428C28.9162 24.6428 27.6044 25.9545 27.6044 27.5668C27.6044 29.1792 28.9162 30.491 30.5285 30.491C32.1408 30.491 33.4526 29.1792 33.4526 27.5668ZM29.0692 27.5668C29.0692 26.7623 29.7238 26.1077 30.5284 26.1077C31.333 26.1077 31.9876 26.7623 31.9876 27.5668C31.9876 28.3715 31.333 29.0261 30.5284 29.0261C29.7238 29.0261 29.0692 28.3715 29.0692 27.5668Z" fill="#073141"/>
<path d="M49.1178 40.787C48.6517 40.5245 48.3621 40.0434 48.3621 39.5313V21.8423C48.3621 21.3302 48.6516 20.849 49.1176 20.5867C50.144 20.009 50.7351 18.9188 50.6602 17.7416C50.5651 16.2466 49.368 15.03 47.8756 14.9116C46.7363 14.8217 45.6515 15.3677 45.049 16.3381C44.7696 16.7879 44.3076 17.0565 43.8133 17.0565H40.2385L28.4207 7.67298C28.5709 7.31693 28.6541 6.92582 28.6541 6.51556C28.6541 4.86831 27.3139 3.52808 25.6667 3.52808C24.0194 3.52808 22.6792 4.86831 22.6792 6.51556C22.6792 6.86713 22.7407 7.20443 22.8527 7.5179L10.8397 17.0566H7.52006C7.02563 17.0566 6.56371 16.788 6.28432 16.3381C5.68178 15.3679 4.59917 14.8206 3.45787 14.9117C1.96549 15.03 0.768228 16.2466 0.673111 17.7416C0.598014 18.9188 1.18913 20.0091 2.21568 20.5868C2.6817 20.8492 2.97125 21.3303 2.97125 21.8424V39.5314C2.97125 40.0435 2.6816 40.5246 2.21539 40.7871C1.19098 41.3638 0.599869 42.4519 0.672721 43.627C0.767252 45.1507 1.98756 46.371 3.51109 46.4656C4.68608 46.5387 5.77465 45.9473 6.35151 44.9227C6.61391 44.4567 7.09496 44.1672 7.60707 44.1672H9.63089C10.0355 44.1672 10.3633 43.8393 10.3633 43.4348C10.3633 43.0302 10.0355 42.7023 9.63089 42.7023H7.60717C6.56684 42.7023 5.59653 43.2779 5.07495 44.2043C4.77612 44.7352 4.21372 45.042 3.60191 45.0037C2.8272 44.9555 2.18287 44.3109 2.13473 43.5364C2.09693 42.9268 2.40328 42.3624 2.93414 42.0635C3.8606 41.5419 4.43618 40.5717 4.43618 39.5313V21.8423C4.43618 20.8019 3.8606 19.8316 2.93424 19.31C2.4024 19.0107 2.09606 18.4454 2.13492 17.8346C2.18414 17.0618 2.8026 16.433 3.57349 16.3719C4.16509 16.3255 4.72769 16.608 5.03999 17.1107C5.58842 17.994 6.51557 18.5214 7.52006 18.5214H43.8133C44.8178 18.5214 45.7449 17.994 46.2934 17.1107C46.6055 16.6081 47.166 16.3255 47.7598 16.3719C48.5308 16.433 49.1493 17.0618 49.1984 17.8347C49.2372 18.4454 48.931 19.0108 48.3991 19.31C47.4727 19.8316 46.8972 20.8018 46.8972 21.8423V39.5313C46.8972 40.5715 47.4727 41.5419 48.3991 42.0635C48.9301 42.3624 49.2363 42.9268 49.1986 43.5363C49.1506 44.311 48.506 44.9555 47.7315 45.0037C47.1208 45.0424 46.5573 44.7352 46.2584 44.2043C45.7368 43.2779 44.7666 42.7023 43.7262 42.7023H12.5594C12.1548 42.7023 11.827 43.0302 11.827 43.4348C11.827 43.8393 12.1548 44.1672 12.5594 44.1672H43.7262C44.2383 44.1672 44.7194 44.4567 44.9817 44.9227C45.5657 45.9601 46.6629 46.5385 47.8223 46.4656C49.3459 46.3709 50.5661 45.1506 50.6605 43.6269C50.7335 42.4519 50.1423 41.3637 49.1178 40.787ZM25.6667 4.99291C26.5062 4.99291 27.1892 5.67592 27.1892 6.51556C27.1892 7.35521 26.5062 8.03821 25.6667 8.03821C24.827 8.03821 24.144 7.35521 24.144 6.51556C24.144 5.67592 24.8271 4.99291 25.6667 4.99291ZM23.6724 8.73763C24.2017 9.21311 24.9009 9.50305 25.6667 9.50305C26.3744 9.50305 27.0251 9.2551 27.5375 8.84231L37.8825 17.0566H13.1955L23.6724 8.73763Z" fill="#073141"/>
<path d="M11.0951 21.6261C11.4997 21.6261 11.8275 21.2983 11.8275 20.8937C11.8275 20.4891 11.4997 20.1613 11.0951 20.1613H6.80822C6.40364 20.1613 6.07581 20.4891 6.07581 20.8937V40.3302C6.07581 40.7348 6.40364 41.0626 6.80822 41.0626H44.525C44.9296 41.0626 45.2574 40.7348 45.2574 40.3302V20.8937C45.2574 20.4891 44.9296 20.1613 44.525 20.1613H14.0235C13.6189 20.1613 13.2911 20.4891 13.2911 20.8937C13.2911 21.2983 13.6189 21.6261 14.0235 21.6261H43.7926V38.0663L41.124 34.3739C40.8869 34.046 40.4291 33.9726 40.1013 34.2092C39.7735 34.4463 39.6998 34.9041 39.9366 35.232L43.0919 39.5977H29.7698L36.3053 30.5551C36.3436 30.502 36.3946 30.4909 36.4308 30.4909C36.4669 30.4909 36.5181 30.502 36.5563 30.5551L38.199 32.828C38.436 33.1556 38.8938 33.2292 39.2218 32.9927C39.5495 32.7556 39.6232 32.2978 39.3864 31.9699L37.7437 29.697C37.4399 29.2767 36.9491 29.026 36.4308 29.0261C35.9124 29.0261 35.4217 29.2768 35.1182 29.697L30.4318 36.1812L26.9328 31.7971C26.6237 31.4097 26.1622 31.1877 25.6666 31.1877C25.1712 31.1877 24.7097 31.4097 24.4006 31.797L20.9016 36.1812L16.2153 29.6971C15.9117 29.2769 15.4209 29.0262 14.9026 29.0262C14.9025 29.0262 14.9027 29.0262 14.9026 29.0262C14.3843 29.0262 13.8934 29.2769 13.5897 29.6971L7.54064 38.0666V21.6261H11.0951ZM25.5456 32.7108C25.584 32.6627 25.6327 32.6525 25.6665 32.6525C25.7006 32.6525 25.7493 32.6627 25.7876 32.7109L29.5409 37.4136L27.9624 39.5977H23.3708L21.7922 37.4135L25.5456 32.7108ZM14.7767 30.5552C14.8151 30.5021 14.8663 30.491 14.9024 30.491C14.9386 30.491 14.9897 30.5021 15.028 30.5552L21.5635 39.5978H8.24123L14.7767 30.5552Z" fill="#073141"/>
</g>
<defs>
<clipPath id="clip0_532_186">
<rect width="50" height="50" fill="white" transform="translate(0.666687)"/>
</clipPath>
</defs>
</svg>
