<svg width="51" height="50" viewBox="0 0 51 50" fill="none" xmlns="http://www.w3.org/2000/svg">
<g clip-path="url(#clip0_532_196)">
<path d="M48.1546 45.8927V42.0207C48.1546 41.6154 47.826 41.2868 47.4207 41.2868C47.0153 41.2868 46.6868 41.6154 46.6868 42.0207V45.8017H45.744V35.5554C46.057 35.5988 46.3738 35.5988 46.6868 35.5554V39.0856C46.6868 39.4909 47.0153 39.8195 47.4207 39.8195C47.826 39.8195 48.1546 39.4909 48.1546 39.0856V34.9842C49.0496 34.3664 49.6377 33.3341 49.6377 32.1667C49.6377 30.2799 48.1025 28.7449 46.2155 28.7449C44.3285 28.7449 42.7933 30.2799 42.7933 32.1667C42.7933 33.3341 43.3813 34.3664 44.2764 34.9842V36.3504C44.1002 36.718 43.5075 37.8494 42.4094 38.9621C40.6635 40.7312 38.5152 41.6283 36.0245 41.6283C33.5338 41.6283 31.3855 40.7312 29.6396 38.9621C28.5407 37.8485 27.9479 36.7164 27.7725 36.3504V34.9842C28.6676 34.3664 29.2556 33.3341 29.2556 32.1667C29.2556 30.2799 27.7205 28.7449 25.8335 28.7449C23.9465 28.7449 22.4113 30.2799 22.4113 32.1667C22.4113 33.3341 22.9994 34.3664 23.8944 34.9842V36.3504C23.7181 36.718 23.1255 37.8494 22.0273 38.9621C20.2814 40.7312 18.1332 41.6283 15.6425 41.6283C13.1517 41.6283 11.0035 40.7312 9.25759 38.9621C8.15867 37.8485 7.56589 36.7164 7.3905 36.3504V34.9842C8.28552 34.3664 8.87361 33.3341 8.87361 32.1667C8.87361 30.2799 7.33845 28.7449 5.45144 28.7449C3.56443 28.7449 2.02927 30.2799 2.02927 32.1667C2.02927 33.3341 2.61726 34.3663 3.51228 34.9841V45.8927C1.97927 46.2499 0.833374 47.6263 0.833374 49.2662C0.833374 49.6715 1.16189 50 1.56726 50H9.33533C9.7407 50 10.0692 49.6715 10.0692 49.2662C10.0692 47.6262 8.92332 46.2498 7.39041 45.8927V39.0651C7.61951 39.3526 7.87849 39.6506 8.1696 39.9488C10.1795 42.0077 12.7635 43.0959 15.6424 43.0959C18.5213 43.0959 21.1052 42.0077 23.1152 39.9488C23.4063 39.6506 23.6652 39.3526 23.8943 39.0651V45.8927C22.3613 46.2498 21.2154 47.6262 21.2154 49.2662C21.2154 49.6714 21.5439 50 21.9493 50H29.7175C30.1228 50 30.4513 49.6715 30.4513 49.2662C30.4513 47.6262 29.3054 46.2498 27.7725 45.8927V39.0651C28.0016 39.3526 28.2606 39.6506 28.5516 39.9488C30.5615 42.0077 33.1456 43.0959 36.0245 43.0959C38.9033 43.0959 41.4874 42.0077 43.4972 39.9488C43.7884 39.6506 44.0472 39.3526 44.2764 39.0651V45.8927C42.7435 46.2498 41.5976 47.6262 41.5976 49.2662C41.5976 49.6714 41.9261 50 42.3315 50H50.0996C50.505 50 50.8335 49.6715 50.8335 49.2662C50.8334 47.6262 49.6875 46.2498 48.1546 45.8927ZM46.2154 30.2126C47.293 30.2126 48.1699 31.0893 48.1699 32.1667C48.1699 33.2443 47.2931 34.1209 46.2154 34.1209C45.1378 34.1209 44.2609 33.2443 44.2609 32.1667C44.261 31.0893 45.1378 30.2126 46.2154 30.2126ZM5.45134 30.2126C6.52898 30.2126 7.40584 31.0893 7.40584 32.1667C7.40584 33.2443 6.52898 34.1209 5.45134 34.1209C4.37371 34.1209 3.49685 33.2443 3.49685 32.1667C3.49685 31.0893 4.37361 30.2126 5.45134 30.2126ZM5.45134 35.5887C5.6113 35.5887 5.76853 35.5768 5.92273 35.5555V45.8018H4.97986V35.5554C5.13406 35.5768 5.29128 35.5887 5.45134 35.5887ZM8.46179 48.5324H2.4408C2.73386 47.7935 3.45593 47.2696 4.29812 47.2696H6.60447C7.44656 47.2695 8.16873 47.7934 8.46179 48.5324ZM25.8334 30.2126C26.911 30.2126 27.7879 31.0893 27.7879 32.1667C27.7879 33.2443 26.911 34.1209 25.8334 34.1209C24.7557 34.1209 23.8789 33.2443 23.8789 32.1667C23.8789 31.0893 24.7557 30.2126 25.8334 30.2126ZM25.8334 35.5887C25.9933 35.5887 26.1506 35.5768 26.3048 35.5555V45.8018H25.362V35.5554C25.5162 35.5768 25.6734 35.5887 25.8334 35.5887ZM28.8439 48.5324H22.8228C23.116 47.7935 23.8381 47.2696 24.6802 47.2696H26.9865C27.8286 47.2695 28.5508 47.7934 28.8439 48.5324ZM43.205 48.5324C43.498 47.7935 44.2201 47.2696 45.0623 47.2696H47.3686C48.2107 47.2696 48.9329 47.7935 49.226 48.5324H43.205Z" fill="#073141"/>
<path d="M50.8302 0.67168C50.7986 0.298828 50.4742 0 50.0995 0H1.56726C1.16775 0 0.833374 0.335156 0.833374 0.733887V25.8345C0.833374 26.2332 1.16775 26.5684 1.56726 26.5684H50.0996C50.4991 26.5684 50.8335 26.2332 50.8335 25.8345V0.733887C50.8334 0.712891 50.832 0.692187 50.8302 0.67168ZM47.7397 22.4372V4.13115L49.3657 2.50537V24.063L47.7397 22.4372ZM33.4957 22.0073L29.6726 18.415L35.5056 12.9342C36.2038 12.278 37.2975 12.278 37.9959 12.9342L46.272 20.7106V22.0072L33.4957 22.0073ZM48.3276 1.46768L46.7018 3.09326H38.9977C38.5924 3.09326 38.2638 3.42187 38.2638 3.82715C38.2638 4.23242 38.5924 4.56104 38.9977 4.56104H46.2719V18.6968L39.0009 11.8646C37.7391 10.679 35.7625 10.6789 34.5006 11.8646L28.601 17.408L21.1831 10.438C19.9214 9.25244 17.9446 9.25244 16.6827 10.438L11.1344 15.6514C10.839 15.9289 10.8246 16.3934 11.102 16.6887C11.3798 16.9842 11.8442 16.9984 12.1393 16.721L17.6877 11.5076C18.386 10.8516 19.4797 10.8516 20.178 11.5076L31.3522 22.0073H6.51355L9.99988 18.7313C10.2953 18.4538 10.3096 17.9894 10.0322 17.694C9.75466 17.3986 9.29011 17.3844 8.9949 17.6617L5.3947 21.0445V4.56104H36.0623C36.4677 4.56104 36.7962 4.23242 36.7962 3.82715C36.7962 3.42187 36.4677 3.09326 36.0623 3.09326H4.96482L3.33914 1.46768H48.3276ZM2.30105 2.50537L3.92703 4.13115V22.4373L2.30105 24.0631V2.50537ZM3.33914 25.1006L4.96492 23.475H46.7019L48.3277 25.1006H3.33914Z" fill="#073141"/>
<path d="M28.624 6.17407C26.8745 6.17407 25.4512 7.59731 25.4512 9.34663C25.4512 11.0959 26.8745 12.5192 28.624 12.5192C30.3735 12.5192 31.7968 11.096 31.7968 9.34663C31.7968 7.59722 30.3735 6.17407 28.624 6.17407ZM28.624 11.0514C27.6838 11.0514 26.9188 10.2867 26.9188 9.34663C26.9188 8.40659 27.6838 7.64175 28.624 7.64175C29.5642 7.64175 30.3291 8.40659 30.3291 9.34663C30.3291 10.2867 29.5642 11.0514 28.624 11.0514Z" fill="#073141"/>
</g>
<defs>
<clipPath id="clip0_532_196">
<rect width="50" height="50" fill="white" transform="translate(0.833374)"/>
</clipPath>
</defs>
</svg>
