<svg width="18" height="12" viewBox="0 0 18 12" fill="none" xmlns="http://www.w3.org/2000/svg">
<path fill-rule="evenodd" clip-rule="evenodd" d="M4.98551 6.21548C4.98551 4.00272 6.78534 2.20215 9.00048 2.20215C11.2133 2.20215 13.0131 4.00269 13.0131 6.21548C13.0131 8.42874 11.2133 10.2285 9.00048 10.2285C6.7853 10.2285 4.98551 8.42874 4.98551 6.21548ZM0.10402 5.83259C-0.0344291 6.08301 -0.0344291 6.34794 0.10402 6.5986C1.90147 9.82633 5.31012 11.8314 9.00048 11.8314C12.6884 11.8314 16.0971 9.82637 17.8946 6.5986C18.0354 6.34794 18.0354 6.08301 17.8946 5.83259C16.0971 2.60486 12.6885 0.599976 9.00048 0.599976C5.31012 0.599976 1.90147 2.60486 0.10402 5.83259ZM9.00048 3.51741C7.51098 3.51741 6.30073 4.72762 6.30073 6.21548C6.30073 7.70329 7.51095 8.91354 9.00048 8.91354C10.4876 8.91354 11.6978 7.70333 11.6978 6.21548C11.6978 4.72762 10.4876 3.51741 9.00048 3.51741Z" fill="#68818B"/>
</svg>
