<svg width="18" height="16" viewBox="0 0 18 16" fill="none" xmlns="http://www.w3.org/2000/svg">
<path d="M9 15.7838C8.90895 15.7838 8.81793 15.7603 8.73637 15.7132C8.64777 15.6621 6.54294 14.44 4.4079 12.5985C3.14249 11.5072 2.13238 10.4247 1.40571 9.3813C0.465348 8.03109 -0.00753804 6.73235 9.08466e-05 5.52111C0.00902052 4.1117 0.513828 2.78624 1.42163 1.78886C2.34476 0.774678 3.5767 0.216187 4.8906 0.216187C6.57447 0.216187 8.114 1.15943 9.00004 2.65363C9.88608 1.15946 11.4256 0.216187 13.1095 0.216187C14.3508 0.216187 15.5351 0.720115 16.4444 1.63516C17.4422 2.63933 18.0092 4.05816 17.9999 5.52779C17.9922 6.73692 17.5105 8.03369 16.5681 9.38204C15.8391 10.4249 14.8304 11.5069 13.57 12.5979C11.4428 14.4392 9.35304 15.6612 9.26511 15.7124C9.18317 15.76 9.09155 15.7838 9 15.7838Z" fill="#68818B"/>
</svg>
