<svg width="50" height="51" viewBox="0 0 50 51" fill="none" xmlns="http://www.w3.org/2000/svg">
<path fill-rule="evenodd" clip-rule="evenodd" d="M33.034 41.6343C30.608 45.6778 27.6742 47.5 25 47.5C22.3256 47.5 19.392 45.6778 16.9659 41.6343C14.5756 37.6505 13 31.9532 13 25.5C13 19.0467 14.5756 13.3495 16.9659 9.36582C19.392 5.32237 22.3256 3.5 25 3.5C27.6742 3.5 30.608 5.32237 33.034 9.36582C35.4243 13.3495 37 19.0467 37 25.5C37 31.9532 35.4243 37.6505 33.034 41.6343ZM50 25.5C50 11.6929 38.807 0.5 25 0.5C11.1929 0.5 0 11.6929 0 25.5C0 39.307 11.1929 50.5 25 50.5C38.807 50.5 50 39.307 50 25.5ZM3 25.5C3 34.4825 8.38315 42.2075 16.0993 45.625C12.3996 41.0722 10 33.7533 10 25.5C10 17.2468 12.3996 9.9277 16.0993 5.37488C8.38315 8.79253 3 16.5176 3 25.5ZM47 25.5C47 34.4825 41.6167 42.2075 33.9007 45.625C37.6005 41.0722 40 33.7533 40 25.5C40 17.2468 37.6005 9.9277 33.9007 5.37488C41.6167 8.79253 47 16.5176 47 25.5ZM25 28.25C26.5187 28.25 27.75 27.0187 27.75 25.5C27.75 23.9812 26.5187 22.75 25 22.75C23.4812 22.75 22.25 23.9812 22.25 25.5C22.25 27.0187 23.4812 28.25 25 28.25Z" fill="url(#paint0_linear_503_19034)"/>
<defs>
<linearGradient id="paint0_linear_503_19034" x1="-0.5" y1="25" x2="49" y2="25" gradientUnits="userSpaceOnUse">
<stop stop-color="#1D7293"/>
<stop offset="1" stop-color="#073141"/>
</linearGradient>
</defs>
</svg>
