<svg width="204" height="51" viewBox="0 0 204 51" fill="none" xmlns="http://www.w3.org/2000/svg">
<g clip-path="url(#clip0_503_19030)">
<mask id="mask0_503_19030" style="mask-type:luminance" maskUnits="userSpaceOnUse" x="0" y="0" width="50" height="51">
<path d="M50 0.5H0V50.5H50V0.5Z" fill="white"/>
</mask>
<g mask="url(#mask0_503_19030)">
<path fill-rule="evenodd" clip-rule="evenodd" d="M33.034 41.6343C30.608 45.6777 27.6742 47.5 25 47.5C22.3256 47.5 19.392 45.6777 16.9659 41.6343C14.5756 37.6505 13 31.9533 13 25.5C13 19.0467 14.5756 13.3496 16.9659 9.36582C19.392 5.32237 22.3256 3.5 25 3.5C27.6742 3.5 30.608 5.32237 33.034 9.36582C35.4243 13.3496 37 19.0467 37 25.5C37 31.9533 35.4243 37.6505 33.034 41.6343ZM50 25.5C50 11.6929 38.807 0.5 25 0.5C11.1929 0.5 0 11.6929 0 25.5C0 39.307 11.1929 50.5 25 50.5C38.807 50.5 50 39.307 50 25.5ZM3 25.5C3 34.4825 8.38315 42.2075 16.0993 45.625C12.3996 41.0723 10 33.7533 10 25.5C10 17.2468 12.3996 9.9277 16.0993 5.37488C8.38315 8.79253 3 16.5176 3 25.5ZM47 25.5C47 34.4825 41.6167 42.2075 33.9007 45.625C37.6005 41.0723 40 33.7533 40 25.5C40 17.2468 37.6005 9.9277 33.9007 5.37488C41.6167 8.79253 47 16.5176 47 25.5ZM25 28.25C26.5187 28.25 27.75 27.0187 27.75 25.5C27.75 23.9812 26.5187 22.75 25 22.75C23.4812 22.75 22.25 23.9812 22.25 25.5C22.25 27.0187 23.4812 28.25 25 28.25Z" fill="url(#paint0_linear_503_19030)"/>
</g>
<path d="M62.6211 36C62.5345 36 62.4565 35.974 62.3871 35.922C62.3351 35.8527 62.3091 35.7747 62.3091 35.688V18.112C62.3091 18.0253 62.3351 17.956 62.3871 17.904C62.4565 17.8347 62.5345 17.8 62.6211 17.8H68.9651C70.1958 17.8 71.2791 18.0167 72.2151 18.45C73.1511 18.8833 73.8705 19.5073 74.3731 20.322C74.8931 21.1193 75.1531 22.0553 75.1531 23.13V30.67C75.1531 31.7447 74.8931 32.6893 74.3731 33.504C73.8705 34.3013 73.1511 34.9167 72.2151 35.35C71.2791 35.7833 70.1958 36 68.9651 36H62.6211ZM65.3251 33.27C65.3251 33.3567 65.3685 33.4 65.4551 33.4H69.0951C70.0138 33.4 70.7418 33.114 71.2791 32.542C71.8338 31.9527 72.1198 31.1727 72.1371 30.202V23.624C72.1371 22.636 71.8598 21.856 71.3051 21.284C70.7505 20.6947 70.0051 20.4 69.0691 20.4H65.4551C65.3685 20.4 65.3251 20.4433 65.3251 20.53V33.27ZM89.3014 27.862C89.3707 28.2953 89.4054 28.7807 89.4054 29.318L89.3794 30.124C89.3794 30.332 89.2754 30.436 89.0674 30.436H80.9294C80.8427 30.436 80.7994 30.4793 80.7994 30.566C80.8514 31.138 80.9294 31.528 81.0334 31.736C81.4494 32.984 82.4634 33.6167 84.0754 33.634C85.2541 33.634 86.1901 33.1487 86.8834 32.178C86.9527 32.074 87.0394 32.022 87.1434 32.022C87.2127 32.022 87.2734 32.048 87.3254 32.1L88.9374 33.426C89.0934 33.5473 89.1194 33.686 89.0154 33.842C88.4781 34.6047 87.7587 35.194 86.8574 35.61C85.9734 36.026 84.9854 36.234 83.8934 36.234C82.5414 36.234 81.3887 35.9307 80.4354 35.324C79.4994 34.7173 78.8147 33.868 78.3814 32.776C77.9827 31.84 77.7834 30.54 77.7834 28.876C77.7834 27.8707 77.8874 27.056 78.0954 26.432C78.4421 25.2187 79.0921 24.2653 80.0454 23.572C81.0161 22.8613 82.1774 22.506 83.5294 22.506C86.9441 22.506 88.8681 24.2913 89.3014 27.862ZM83.5294 25.106C82.8881 25.106 82.3507 25.2707 81.9174 25.6C81.5014 25.912 81.2067 26.354 81.0334 26.926C80.9294 27.2207 80.8601 27.602 80.8254 28.07C80.7907 28.1567 80.8254 28.2 80.9294 28.2H86.2074C86.2941 28.2 86.3374 28.1567 86.3374 28.07C86.3027 27.6367 86.2507 27.3073 86.1814 27.082C86.0254 26.458 85.7134 25.9727 85.2454 25.626C84.7947 25.2793 84.2227 25.106 83.5294 25.106ZM96.8987 36.156C95.8067 36.156 94.8447 36 94.0127 35.688C93.198 35.3587 92.5653 34.9167 92.1147 34.362C91.664 33.79 91.4387 33.1573 91.4387 32.464V32.23C91.4387 32.1433 91.4647 32.074 91.5167 32.022C91.586 31.9527 91.664 31.918 91.7507 31.918H94.0387C94.1253 31.918 94.1947 31.9527 94.2467 32.022C94.316 32.074 94.3507 32.1433 94.3507 32.23V32.282C94.3507 32.7153 94.5847 33.0967 95.0527 33.426C95.538 33.738 96.1447 33.894 96.8727 33.894C97.566 33.894 98.1293 33.7553 98.5627 33.478C98.996 33.1833 99.2127 32.8193 99.2127 32.386C99.2127 31.9873 99.0307 31.6927 98.6667 31.502C98.32 31.294 97.748 31.0773 96.9507 30.852L95.9627 30.54C95.0787 30.28 94.3333 30.0027 93.7267 29.708C93.12 29.4133 92.6087 29.0147 92.1927 28.512C91.7767 27.992 91.5687 27.3333 91.5687 26.536C91.5687 25.3227 92.0453 24.3607 92.9987 23.65C93.952 22.922 95.2087 22.558 96.7687 22.558C97.826 22.558 98.7533 22.7313 99.5507 23.078C100.348 23.4073 100.963 23.8753 101.397 24.482C101.83 25.0713 102.047 25.7473 102.047 26.51C102.047 26.5967 102.012 26.6747 101.943 26.744C101.891 26.796 101.821 26.822 101.735 26.822H99.5247C99.438 26.822 99.36 26.796 99.2907 26.744C99.2387 26.6747 99.2127 26.5967 99.2127 26.51C99.2127 26.0593 98.9873 25.6867 98.5367 25.392C98.1033 25.08 97.5053 24.924 96.7427 24.924C96.0667 24.924 95.512 25.054 95.0787 25.314C94.6627 25.5567 94.4547 25.9033 94.4547 26.354C94.4547 26.77 94.654 27.0907 95.0527 27.316C95.4687 27.524 96.1533 27.758 97.1067 28.018L97.6787 28.174C98.5973 28.4513 99.3687 28.7373 99.9927 29.032C100.617 29.3093 101.145 29.708 101.579 30.228C102.012 30.7307 102.229 31.3893 102.229 32.204C102.229 33.4347 101.743 34.4053 100.773 35.116C99.802 35.8093 98.5107 36.156 96.8987 36.156ZM106.497 20.894C105.96 20.894 105.518 20.7207 105.171 20.374C104.824 20.0273 104.651 19.5853 104.651 19.048C104.651 18.5107 104.824 18.0687 105.171 17.722C105.518 17.3753 105.96 17.202 106.497 17.202C107.034 17.202 107.476 17.3753 107.823 17.722C108.17 18.0687 108.343 18.5107 108.343 19.048C108.343 19.5853 108.17 20.0273 107.823 20.374C107.476 20.7207 107.034 20.894 106.497 20.894ZM105.249 36C105.162 36 105.084 35.974 105.015 35.922C104.963 35.8527 104.937 35.7747 104.937 35.688V23C104.937 22.9133 104.963 22.844 105.015 22.792C105.084 22.7227 105.162 22.688 105.249 22.688H107.641C107.728 22.688 107.797 22.7227 107.849 22.792C107.918 22.844 107.953 22.9133 107.953 23V35.688C107.953 35.7747 107.918 35.8527 107.849 35.922C107.797 35.974 107.728 36 107.641 36H105.249ZM119.546 23.026C119.546 22.9393 119.572 22.87 119.624 22.818C119.693 22.7487 119.771 22.714 119.858 22.714H122.25C122.337 22.714 122.406 22.7487 122.458 22.818C122.527 22.87 122.562 22.9393 122.562 23.026V35.116C122.562 37.2827 121.938 38.8253 120.69 39.744C119.459 40.68 117.839 41.148 115.828 41.148C115.291 41.148 114.762 41.122 114.242 41.07C114.051 41.0527 113.956 40.94 113.956 40.732L114.034 38.6C114.034 38.4093 114.155 38.314 114.398 38.314C114.901 38.366 115.351 38.392 115.75 38.392C117.05 38.392 118.003 38.132 118.61 37.612C119.234 37.1093 119.546 36.2513 119.546 35.038V34.83C119.546 34.778 119.529 34.752 119.494 34.752C119.459 34.7347 119.425 34.7433 119.39 34.778C118.679 35.5407 117.674 35.922 116.374 35.922C115.247 35.922 114.216 35.636 113.28 35.064C112.344 34.492 111.694 33.6167 111.33 32.438C111.105 31.6233 110.992 30.5747 110.992 29.292C110.992 27.8533 111.131 26.7527 111.408 25.99C111.755 24.9327 112.353 24.092 113.202 23.468C114.051 22.8267 115.048 22.506 116.192 22.506C117.561 22.506 118.627 22.9047 119.39 23.702C119.425 23.754 119.459 23.7713 119.494 23.754C119.529 23.7367 119.546 23.702 119.546 23.65V23.026ZM119.364 31.58C119.433 31.32 119.477 31.0427 119.494 30.748C119.529 30.436 119.546 29.942 119.546 29.266C119.546 28.6073 119.529 28.1393 119.494 27.862C119.477 27.5673 119.425 27.2813 119.338 27.004C119.199 26.432 118.913 25.9727 118.48 25.626C118.064 25.2793 117.527 25.106 116.868 25.106C116.244 25.106 115.715 25.2793 115.282 25.626C114.849 25.9727 114.537 26.432 114.346 27.004C114.138 27.4893 114.034 28.252 114.034 29.292C114.034 30.3667 114.121 31.1207 114.294 31.554C114.467 32.1087 114.779 32.568 115.23 32.932C115.698 33.2787 116.253 33.452 116.894 33.452C117.57 33.452 118.116 33.2787 118.532 32.932C118.948 32.5853 119.225 32.1347 119.364 31.58ZM132.047 22.506C133.451 22.506 134.569 22.922 135.401 23.754C136.251 24.586 136.675 25.7213 136.675 27.16V35.688C136.675 35.7747 136.641 35.8527 136.571 35.922C136.519 35.974 136.45 36 136.363 36H133.971C133.885 36 133.807 35.974 133.737 35.922C133.685 35.8527 133.659 35.7747 133.659 35.688V27.784C133.659 26.9867 133.434 26.3453 132.983 25.86C132.533 25.3573 131.935 25.106 131.189 25.106C130.444 25.106 129.837 25.3487 129.369 25.834C128.919 26.3193 128.693 26.9607 128.693 27.758V35.688C128.693 35.7747 128.659 35.8527 128.589 35.922C128.537 35.974 128.468 36 128.381 36H125.989C125.903 36 125.825 35.974 125.755 35.922C125.703 35.8527 125.677 35.7747 125.677 35.688V23.026C125.677 22.9393 125.703 22.87 125.755 22.818C125.825 22.7487 125.903 22.714 125.989 22.714H128.381C128.468 22.714 128.537 22.7487 128.589 22.818C128.659 22.87 128.693 22.9393 128.693 23.026V23.858C128.693 23.91 128.711 23.9447 128.745 23.962C128.78 23.9793 128.806 23.962 128.823 23.91C129.534 22.974 130.609 22.506 132.047 22.506ZM152.404 20.088C152.404 20.1747 152.369 20.2527 152.3 20.322C152.248 20.374 152.179 20.4 152.092 20.4H143.252C143.165 20.4 143.122 20.4433 143.122 20.53V25.392C143.122 25.4787 143.165 25.522 143.252 25.522H149.206C149.293 25.522 149.362 25.5567 149.414 25.626C149.483 25.678 149.518 25.7473 149.518 25.834V27.81C149.518 27.8967 149.483 27.9747 149.414 28.044C149.362 28.096 149.293 28.122 149.206 28.122H143.252C143.165 28.122 143.122 28.1653 143.122 28.252V35.688C143.122 35.7747 143.087 35.8527 143.018 35.922C142.966 35.974 142.897 36 142.81 36H140.418C140.331 36 140.253 35.974 140.184 35.922C140.132 35.8527 140.106 35.7747 140.106 35.688V18.112C140.106 18.0253 140.132 17.956 140.184 17.904C140.253 17.8347 140.331 17.8 140.418 17.8H152.092C152.179 17.8 152.248 17.8347 152.3 17.904C152.369 17.956 152.404 18.0253 152.404 18.112V20.088ZM158.767 36.208C157.397 36.208 156.219 35.8613 155.231 35.168C154.26 34.4747 153.575 33.5127 153.177 32.282C152.882 31.346 152.735 30.358 152.735 29.318C152.735 28.2087 152.873 27.2207 153.151 26.354C153.549 25.1407 154.243 24.196 155.231 23.52C156.219 22.844 157.406 22.506 158.793 22.506C160.11 22.506 161.245 22.844 162.199 23.52C163.169 24.196 163.854 25.132 164.253 26.328C164.565 27.16 164.721 28.148 164.721 29.292C164.721 30.384 164.573 31.372 164.279 32.256C163.88 33.4867 163.195 34.4573 162.225 35.168C161.254 35.8613 160.101 36.208 158.767 36.208ZM158.767 33.608C159.408 33.608 159.954 33.426 160.405 33.062C160.873 32.698 161.211 32.1867 161.419 31.528C161.592 30.956 161.679 30.228 161.679 29.344C161.679 28.408 161.592 27.68 161.419 27.16C161.228 26.5013 160.899 25.9987 160.431 25.652C159.963 25.288 159.391 25.106 158.715 25.106C158.073 25.106 157.519 25.288 157.051 25.652C156.583 25.9987 156.245 26.5013 156.037 27.16C155.863 27.7667 155.777 28.4947 155.777 29.344C155.777 30.1933 155.863 30.9213 156.037 31.528C156.227 32.1867 156.557 32.698 157.025 33.062C157.51 33.426 158.091 33.608 158.767 33.608ZM173.76 22.558C174.315 22.558 174.8 22.6707 175.216 22.896C175.355 22.9653 175.407 23.0953 175.372 23.286L174.93 25.626C174.913 25.834 174.791 25.8947 174.566 25.808C174.306 25.7213 174.003 25.678 173.656 25.678C173.431 25.678 173.257 25.6867 173.136 25.704C172.408 25.7387 171.801 25.9987 171.316 26.484C170.831 26.952 170.588 27.5673 170.588 28.33V35.688C170.588 35.7747 170.553 35.8527 170.484 35.922C170.432 35.974 170.363 36 170.276 36H167.884C167.797 36 167.719 35.974 167.65 35.922C167.598 35.8527 167.572 35.7747 167.572 35.688V23.026C167.572 22.9393 167.598 22.87 167.65 22.818C167.719 22.7487 167.797 22.714 167.884 22.714H170.276C170.363 22.714 170.432 22.7487 170.484 22.818C170.553 22.87 170.588 22.9393 170.588 23.026V24.196C170.588 24.2653 170.597 24.3087 170.614 24.326C170.649 24.326 170.683 24.3 170.718 24.248C171.446 23.1213 172.46 22.558 173.76 22.558ZM185.003 23.026C185.003 22.9393 185.029 22.87 185.081 22.818C185.15 22.7487 185.228 22.714 185.315 22.714H187.707C187.794 22.714 187.863 22.7487 187.915 22.818C187.984 22.87 188.019 22.9393 188.019 23.026V35.116C188.019 37.2827 187.395 38.8253 186.147 39.744C184.916 40.68 183.296 41.148 181.285 41.148C180.748 41.148 180.219 41.122 179.699 41.07C179.508 41.0527 179.413 40.94 179.413 40.732L179.491 38.6C179.491 38.4093 179.612 38.314 179.855 38.314C180.358 38.366 180.808 38.392 181.207 38.392C182.507 38.392 183.46 38.132 184.067 37.612C184.691 37.1093 185.003 36.2513 185.003 35.038V34.83C185.003 34.778 184.986 34.752 184.951 34.752C184.916 34.7347 184.882 34.7433 184.847 34.778C184.136 35.5407 183.131 35.922 181.831 35.922C180.704 35.922 179.673 35.636 178.737 35.064C177.801 34.492 177.151 33.6167 176.787 32.438C176.562 31.6233 176.449 30.5747 176.449 29.292C176.449 27.8533 176.588 26.7527 176.865 25.99C177.212 24.9327 177.81 24.092 178.659 23.468C179.508 22.8267 180.505 22.506 181.649 22.506C183.018 22.506 184.084 22.9047 184.847 23.702C184.882 23.754 184.916 23.7713 184.951 23.754C184.986 23.7367 185.003 23.702 185.003 23.65V23.026ZM184.821 31.58C184.89 31.32 184.934 31.0427 184.951 30.748C184.986 30.436 185.003 29.942 185.003 29.266C185.003 28.6073 184.986 28.1393 184.951 27.862C184.934 27.5673 184.882 27.2813 184.795 27.004C184.656 26.432 184.37 25.9727 183.937 25.626C183.521 25.2793 182.984 25.106 182.325 25.106C181.701 25.106 181.172 25.2793 180.739 25.626C180.306 25.9727 179.994 26.432 179.803 27.004C179.595 27.4893 179.491 28.252 179.491 29.292C179.491 30.3667 179.578 31.1207 179.751 31.554C179.924 32.1087 180.236 32.568 180.687 32.932C181.155 33.2787 181.71 33.452 182.351 33.452C183.027 33.452 183.573 33.2787 183.989 32.932C184.405 32.5853 184.682 32.1347 184.821 31.58ZM202.34 27.862C202.41 28.2953 202.444 28.7807 202.444 29.318L202.418 30.124C202.418 30.332 202.314 30.436 202.106 30.436H193.968C193.882 30.436 193.838 30.4793 193.838 30.566C193.89 31.138 193.968 31.528 194.072 31.736C194.488 32.984 195.502 33.6167 197.114 33.634C198.293 33.634 199.229 33.1487 199.922 32.178C199.992 32.074 200.078 32.022 200.182 32.022C200.252 32.022 200.312 32.048 200.364 32.1L201.976 33.426C202.132 33.5473 202.158 33.686 202.054 33.842C201.517 34.6047 200.798 35.194 199.896 35.61C199.012 36.026 198.024 36.234 196.932 36.234C195.58 36.234 194.428 35.9307 193.474 35.324C192.538 34.7173 191.854 33.868 191.42 32.776C191.022 31.84 190.822 30.54 190.822 28.876C190.822 27.8707 190.926 27.056 191.134 26.432C191.481 25.2187 192.131 24.2653 193.084 23.572C194.055 22.8613 195.216 22.506 196.568 22.506C199.983 22.506 201.907 24.2913 202.34 27.862ZM196.568 25.106C195.927 25.106 195.39 25.2707 194.956 25.6C194.54 25.912 194.246 26.354 194.072 26.926C193.968 27.2207 193.899 27.602 193.864 28.07C193.83 28.1567 193.864 28.2 193.968 28.2H199.246C199.333 28.2 199.376 28.1567 199.376 28.07C199.342 27.6367 199.29 27.3073 199.22 27.082C199.064 26.458 198.752 25.9727 198.284 25.626C197.834 25.2793 197.262 25.106 196.568 25.106Z" fill="#073141"/>
</g>
<defs>
<linearGradient id="paint0_linear_503_19030" x1="-0.5" y1="25" x2="49" y2="25" gradientUnits="userSpaceOnUse">
<stop stop-color="#1D7293"/>
<stop offset="1" stop-color="#073141"/>
</linearGradient>
<clipPath id="clip0_503_19030">
<rect width="204" height="51" fill="white"/>
</clipPath>
</defs>
</svg>
