<svg width="50" height="50" viewBox="0 0 50 50" fill="none" xmlns="http://www.w3.org/2000/svg">
<path d="M29.8363 36.485V18.8625C29.8363 17.7504 30.7462 16.8405 31.8583 16.8405C32.9704 16.8405 33.8803 17.7505 33.8803 18.8625V30.8265" stroke="#073141" stroke-width="1.46509" stroke-miterlimit="22.9256"/>
<path d="M33.8803 27.2879C33.8803 26.1758 34.7902 25.2659 35.9023 25.2659C37.0145 25.2659 37.9243 26.1757 37.9243 27.2879V31.3319M41.9684 29.3099C41.9684 28.1978 42.8783 27.2879 43.9904 27.2879C45.1025 27.2879 46.0124 28.1979 46.0124 29.3099V38.916L43.9904 44.929H31.8055L26.9062 38.916V31.3148L29.8364 28.7777M41.9684 31.8374V28.2989C41.9684 27.1868 41.0585 26.2769 39.9464 26.2769C38.8343 26.2769 37.9244 27.1868 37.9244 28.2989" stroke="#073141" stroke-width="1.46509" stroke-miterlimit="22.9256"/>
<path d="M31.8054 44.9291V49.2676H38.8627M40.3278 49.2676H43.9904V44.9291" stroke="#073141" stroke-width="1.46509" stroke-miterlimit="22.9256"/>
<path d="M29.8362 20.12L25.0785 22.4119L26.0896 14.9548L20.8884 9.5162L24.3012 8.89735M25.7431 8.63598L28.2931 8.17361L31.8582 1.54639L35.4233 8.17361L42.8279 9.5163L37.6267 14.9549L38.6378 22.412L33.8801 20.1201" stroke="#073141" stroke-width="1.46509" stroke-miterlimit="22.9256"/>
<path fill-rule="evenodd" clip-rule="evenodd" d="M12.8785 15.4907L15.5281 20.4161L21.0313 21.414L17.1658 25.4561L17.9172 30.9983L12.8785 28.5709L7.83977 30.9983L8.59126 25.4561L4.72571 21.414L10.2288 20.4161L12.8785 15.4907Z" stroke="#073141" stroke-width="1.46509" stroke-miterlimit="22.9256"/>
<path fill-rule="evenodd" clip-rule="evenodd" d="M15.8086 36.0732L17.4786 39.1778L20.9475 39.8069L18.5108 42.3547L18.9845 45.8481L15.8086 44.3181L12.6325 45.8481L13.1062 42.3547L10.6696 39.8069L14.1384 39.1778L15.8086 36.0732Z" stroke="#073141" stroke-width="1.46509" stroke-miterlimit="22.9256"/>
<path d="M32.5908 11.9792H34.0559M29.6606 11.9792H31.1257" stroke="#073141" stroke-width="1.46509" stroke-miterlimit="22.9256"/>
</svg>
